<svg xmlns:dc="http://purl.org/dc/elements/1.1/" xmlns:cc="http://creativecommons.org/ns#" xmlns:rdf="http://www.w3.org/1999/02/22-rdf-syntax-ns#" xmlns:svg="http://www.w3.org/2000/svg" xmlns="http://www.w3.org/2000/svg" version="1.1" width="1157.8" height="895.2" id="exceptions4c"><g transform="translate(-1572.6594,374.32793)"><path d="m 1876 -374.2 c -2.5 -0.5 -4.7 1.1 -6.6 2.7 -4.2 3.7 -8 7.9 -11.4 12.3 -3.2 4.4 -8.7 6.2 -12.4 10.1 -3.3 3.4 -6.9 6.5 -9.8 10.3 -2.7 4 -4 8.7 -6 13 -4.4 0.4 -8.8 0.4 -13.2 0.1 -0.2 -6.9 0.2 -13.9 -1.9 -20.6 -0.8 -3 -3.8 -4.6 -6 -6.6 -2.8 -2.1 -5.5 -5 -9.3 -5.2 -0.8 4.1 -1.6 8.2 -3.8 11.8 -1.9 3.4 -5.1 5.8 -8.1 8.2 -4.9 3.9 -8.9 8.7 -12.8 13.5 -2.7 3.2 -3.8 7.3 -5.2 11.1 -7.1 3 -14.7 4.7 -22.1 6.6 -7 1.8 -14.5 1.6 -21.5 3.5 -5.4 1.4 -9.6 5.4 -14.3 8.2 -4.7 3 -10 4.8 -14.7 7.8 -8.3 6.2 -13.9 15.2 -21.5 22.3 -22.6 22.4 -45 45 -67.5 67.5 -4.6 4.6 -8.4 9.9 -12.7 14.8 -6.9 7.8 -12.8 16.6 -18.2 25.5 -2.3 5 -6 10.5 -4 16.2 2.3 3.2 5.1 5.9 8.2 8.3 2.9 1.7 6.3 2.2 9.4 3.1 1 3.6 0.4 7.8 2.6 11 2.1 3.2 4.2 6.6 7.5 8.8 2.6 1.8 5.9 1.8 8.9 2.3 1.3 1.8 2.5 3.6 3.7 5.5 4.8 0.6 9.6 0.6 14.4 0.4 6.1 0.3 9.9 -5.2 15.2 -7.3 7.7 -4 16.5 -2.5 24.8 -2.7 6.2 0.2 12.6 -1 18.5 1.6 5.2 2.2 10.8 3.6 15 7.5 3.5 3.1 7.8 5.7 9.9 10.1 2.6 5.1 5.5 10.2 6.5 16 1.1 6 1.4 12.1 3.3 17.9 3.3 10.6 5.8 21.4 9.6 31.8 1.3 3.6 2.4 7.5 2.3 11.4 0 17.1 -0.2 34.2 0 51.3 1.6 14.9 3.9 29.7 5.3 44.7 1.4 8.1 3.1 16.1 4.5 24.2 1.6 7.1 2.1 14.5 4.8 21.4 3.9 10.4 6.8 21.2 11.1 31.4 3.5 8.1 5.3 17.1 10.6 24.4 4.2 6.2 7.9 12.8 12.3 19 4.5 6.3 9.5 12.1 14.2 18.2 3.4 4.5 8.2 7.6 12.3 11.4 2.9 2.5 5.7 5.2 9.1 7.2 4.2 1.7 8.8 2 13.1 3.2 14.4 3.6 29 6.7 43.5 10.2 4 1 8.2 1.4 12.1 2.9 2.9 1.5 5.4 3.8 7.8 5.9 4.3 4 9 7.7 13.6 11.4 5 4 7.8 10 10.9 15.4 2.2 4 4.9 8 4.7 12.8 0.8 9.2 -1.5 18.4 -1.3 27.6 0.1 6.7 -1.6 13.3 -1.3 20 -0.2 12.2 0.9 24.4 -0.9 36.5 -0.9 7.6 0.5 15.3 -0.9 22.9 -1.5 8.6 -3 17.1 -4.2 25.8 -0.3 4.2 -3.6 7.2 -5.5 10.8 -2.4 4 -3.7 8.5 -6.5 12.2 -5.7 5.2 -14.5 7 -18.2 14.3 -2.7 5.2 -6.7 9.8 -8.4 15.4 -0.7 6.9 -0.3 13.8 -0.2 20.8 4.7 3.3 10.7 3 16.1 2.7 9.2 -0.8 16.9 -6.3 24.7 -10.6 0.5 -4.2 -0.2 -8.5 0.8 -12.6 3 -4.1 5.9 -8.3 9.9 -11.5 5 -0.8 10.4 -0.1 15.2 -2.2 2.6 -1.5 4.7 -3.7 6.4 -6.2 1.8 -2.4 1.5 -5.5 1.8 -8.3 0.2 -3.6 1.1 -7 1.8 -10.5 1.4 -9.3 1.8 -18.6 2.2 -27.9 2.6 -13.2 4.9 -26.6 7.7 -39.8 4.3 -21.1 4.9 -43 11.3 -63.7 1.7 -4.3 4.6 -8 7.3 -11.6 7.5 -0.8 15.1 -0.4 22.2 2.1 4.8 1.7 10.6 1.9 13.9 6.2 2.4 3 5.4 5.8 7 9.4 0.8 6.1 -0.1 12.3 0.3 18.4 0.7 8.3 2 16.6 2.4 24.9 0 26.3 -0.1 52.5 0 78.8 -0.1 4 0.4 8 -0.5 11.9 -1.8 2.4 -4 4.4 -6 6.6 -3.2 3.5 -5.7 7.6 -9.6 10.4 -3.9 2.4 -9 2.1 -12.9 4.6 -3.9 5.4 -6.4 11.6 -8.5 17.9 -1.8 5.3 -5.7 10.2 -5.2 16.1 0.1 3.4 -0.7 8 3.2 9.7 13.3 2 27.7 -1.2 38.3 -9.7 2.1 -4 0.8 -8.9 1.5 -13.3 3.8 -3 7.3 -6.5 11.6 -8.6 4.5 -1.3 9.2 -1.2 13.7 -2.4 3.1 -1.9 5.5 -4.6 7.6 -7.4 2.1 -2.7 1.5 -6.3 1.9 -9.5 -0 -5.2 4.1 -9 4.9 -13.9 0.3 -5 -1.4 -9.8 -1.3 -14.8 0 -17.1 0.1 -34.2 -0 -51.4 -0.6 -9.3 6.3 -17 6.3 -26.2 0.1 -12.5 -0 -25.1 -0.1 -37.6 0 -5.3 0.8 -10.8 3.1 -15.6 3.2 -4.7 7.6 -8.9 13.1 -10.7 10.9 -4 21.8 -8 32.5 -12.5 6.1 -2.7 12.8 -2.6 19.1 -4.7 4.4 -1.4 9 -2.3 13.6 -2.7 7.1 -0.5 14.2 -1.7 21.3 -2.4 8.6 -0.5 16.7 -3.4 25.1 -5 7.3 -2 14.9 -1.4 22.3 -1.5 7.8 -0.6 13.7 5.3 20.3 8.4 8.4 4.6 18.1 5.5 26.7 9.6 9.6 4.3 19.1 9 29.3 12 5.6 2 11.6 1.3 17.4 1.4 17.4 -0.3 35.1 1.1 52.3 -2.7 5.1 -1.2 10.1 -3.1 15.3 -3.5 4.4 -0.1 8.8 0.7 13.1 1.8 3.1 1.8 4.8 5.3 7.2 7.8 4.5 4.9 8.9 10.1 11 16.6 3.4 7 2.3 15 2.4 22.6 -0.1 7.1 0.7 14.3 -1.2 21.3 -3 11.1 -5.1 22.5 -9.4 33.2 -2.5 6.3 -4.2 12.9 -7.3 18.9 -4.9 9.7 -9.8 19.4 -14.6 29.2 -1.3 2.4 -2.3 5.1 -4.6 6.7 -4.6 3.4 -10.1 5.5 -14.3 9.5 -2.5 3 -4.2 6.7 -6.3 10 -2 3.5 -4.8 7 -4.9 11.3 -0.2 6.2 -0.1 12.3 0.1 18.5 4.1 2.9 9.4 3.5 14.2 2 7.4 -1.9 13.8 -6.3 20.5 -9.8 0.5 -4.2 -0.2 -8.5 0.8 -12.6 3 -4.1 6 -8.4 10 -11.5 5 -0.8 10.4 -0.1 15.1 -2.2 2.5 -1.5 4.7 -3.7 6.4 -6.1 1.8 -2.4 1.5 -5.5 1.8 -8.3 0.2 -5.7 2.1 -11.1 3.4 -16.6 1 -4.2 2.1 -8.4 4 -12.3 3.4 -7.5 5.9 -15.5 9.7 -22.9 6.3 -12.5 12.5 -25 18.8 -37.5 3.9 -7.6 6.8 -15.6 10.4 -23.4 1.7 -4 3.8 -8 3.8 -12.4 0.1 -6.3 0.1 -12.5 -0 -18.8 -0.1 -5.5 -4.8 -9.6 -5 -15 -0.2 -4.5 -0.5 -9.3 1.7 -13.4 2.4 -4.8 4.4 -10.2 8.7 -13.7 4.6 -3.8 9.3 -7.5 14.5 -10.5 5.8 -3.4 11.9 -7.3 18.9 -7.5 4.4 -0.3 8.9 0.4 12.9 2.2 9.2 3.9 18.7 7.2 28.1 10.7 5.3 1.7 8.7 6.3 12.5 10 3.6 3.5 6.6 7.5 10 11.2 5.4 5.5 10.4 11.3 15.2 17.3 3.9 5.7 7.9 11.3 11.9 16.9 3.9 5.5 5.6 12.2 7.8 18.5 1.1 3.1 1.7 6.3 1.7 9.5 -0.1 17.9 -0.1 35.9 -0 53.8 -0.1 5.3 0.7 10.9 -1.6 15.9 -3.6 8.5 -6.6 17.2 -10.9 25.3 -3.1 5.9 -5.3 12.5 -10.3 17.2 -3.8 3.7 -6.7 8.3 -10.6 11.9 -3.9 3.6 -9.9 2.9 -14.3 5.7 -3.8 5.4 -6.4 11.6 -8.5 17.9 -1.8 5.4 -5.7 10.2 -5.2 16.1 0.2 3.3 -0.7 8.1 3.2 9.7 5.5 1 11.3 0.5 16.6 -1.3 5.9 -1.9 12 -4.2 16.7 -8.4 2.1 -4 0.8 -8.9 1.5 -13.2 3.8 -3 7.3 -6.5 11.6 -8.6 4.5 -1.3 9.2 -1.2 13.7 -2.4 2.8 -1.7 5.1 -4.2 7.1 -6.7 3.8 -4.3 1.1 -10.5 3.5 -15.3 10.5 -20.5 16.3 -42.9 22.4 -65 4 -15.8 10.2 -30.9 14.8 -46.5 1.4 -5.3 2.7 -10.7 4.1 -16 1.7 -6.5 1.4 -13.3 1.2 -20 -0.1 -4.4 -2.2 -8.3 -4.1 -12.1 -2.6 -5.4 -4.5 -11.1 -7.7 -16.1 -2.6 -4.1 -7.1 -6.2 -10.3 -9.7 -2.9 -5.1 -3.2 -11.3 -3 -17 0 -2.6 0.8 -5.4 3.1 -7 11.9 -9.6 25.9 -15.8 39.1 -23.4 2.8 -1.7 6.1 -3.1 7.5 -6.2 2.6 -5.6 4 -11.8 6.2 -17.6 3.5 -9.5 4.5 -19.6 6.8 -29.5 2 -8.9 9.3 -15.8 10 -25 1.4 -12.4 2.7 -24.8 4.1 -37.2 3.2 -15.3 6.5 -30.6 8.8 -46 1.2 -8.5 3.5 -16.9 3.3 -25.5 -0.1 -8.8 -0.1 -17.6 0 -26.3 0.2 -8.1 -3.1 -15.7 -5.5 -23.3 -1.7 -5.4 -3.6 -10.9 -6.8 -15.7 -4.7 -7.1 -8.8 -14.5 -13.4 -21.6 -4.9 -8.3 -10.8 -16.1 -15.7 -24.4 -5.9 -9.8 -12.8 -18.9 -19.2 -28.3 -14 -19.5 -27.1 -39.6 -40.4 -59.6 -3.5 -5.2 -6.6 -10.7 -11.2 -15.1 -9.6 -8.7 -16.3 -20.8 -28.3 -26.8 -7.8 -3.9 -14.7 -9.6 -23.3 -11.7 -8.6 -2.5 -17.2 -5.3 -25.8 -7.9 -3 -0.9 -6.1 -0.9 -9.2 -0.9 -12.5 0.1 -25 0 -37.6 0.1 -5.4 0.1 -10.7 -1.3 -16.2 -1.3 -4.8 -0 -9.6 0.1 -14.3 -0.7 -6.3 -1 -12.7 -0.1 -18.9 -1.1 -6.3 -1 -12.8 -0.6 -19.1 -0.9 -5 -0.2 -9.9 -0 -14.8 0.6 -8.8 1.4 -17.8 0.6 -26.6 0.9 -6.3 0.2 -12.4 -1.4 -18.7 -1.4 -8.8 0 -17.5 0.1 -26.3 0.1 -6.8 0 -13.7 -0.4 -20.5 0.7 -4.4 0.7 -8.8 0.5 -13.3 0.6 -4.2 0.1 -8.2 1.1 -12.4 1.1 -5.1 0.1 -10.3 -0.2 -15.4 0.9 -23 4.6 -46.4 7.5 -68.7 15.1 -5.7 1.5 -11.2 4.2 -17.2 4.1 -7.5 0 -15.1 -0.1 -22.6 0 -3.7 0.1 -7.3 -0.5 -10.8 -1.8 -6.9 -2.5 -14 -4.2 -20.9 -6.7 -8.6 -3.3 -17.9 -0.7 -26.7 -2.1 -7.1 -1.4 -14.3 -0.5 -21.5 -1 -9.1 -1 -18.3 -1.8 -27.4 -2.5 -2.6 -0.1 -4.8 -1.6 -6.9 -3 -12.1 -8.3 -24.5 -16.3 -36.7 -24.6 -9.3 -6.7 -18.6 -13.2 -28.6 -18.8 -7.9 -4.1 -15.7 -8.6 -23.6 -12.8 -7.7 -4.9 -16.5 -7.6 -24.7 -11.5 -5 -2.4 -10.1 -4.7 -15.5 -5.8 -6.7 -1.4 -13.4 -3.5 -20.3 -3.4 -9.2 -0.1 -18.8 1.1 -27.6 -2.4 -2.2 -0.8 -2.9 -3.3 -4 -5.1 2.9 -3.9 7.5 -5.9 10.3 -9.9 2.2 -3.3 4.9 -6.5 6 -10.3 1.4 -13.2 -0.6 -26.6 -5.6 -38.9 -2.5 -5.5 -5.8 -10.4 -8.5 -15.7 z" style="fill:black"/><g transform="matrix(1.692003,0,0,1.692003,-2154.9525,-2080.9408)" id="text"><path d="m 2376 1205.5 c 28.5 0 57.1 0 85.7 0 0 7.1 0 14.3 0 21.4 7.1 0 14.3 0 21.4 0 0 14.3 0 28.5 0 42.8 -28.5 0 -57.1 0 -85.7 0 0 14.3 0 28.5 0 42.8 14.3 0 28.5 0 42.8 0 0 -7.1 0 -14.3 0 -21.4 14.3 0 28.5 0 42.8 0 0 7.1 0 14.3 0 21.4 -7.1 0 -14.3 0 -21.4 0 0 7.1 0 14.3 0 21.4 -28.5 0 -57.1 0 -85.7 0 0 -7.1 0 -14.3 0 -21.4 -7.1 0 -14.3 0 -21.4 0 0 -28.5 0 -57.1 0 -85.7 7.1 0 14.3 0 21.4 0 0 -7.1 0 -14.3 0 -21.4 m 21.4 21.4 c 0 7.1 0 14.3 0 21.4 14.3 0 28.5 0 42.8 0 0 -7.1 0 -14.3 0 -21.4 -14.3 0 -28.5 0 -42.8 0 z" style="fill:white"/><path d="m 2611.5 1162.7 c 14.2 0 28.5 0 42.8 0 0 57.1 0 114.2 0 171.3 -14.3 0 -28.6 0 -42.8 0 -0.1 -14.3 -0.1 -28.5 0 -42.8 -28.6 0 -57.1 0 -85.7 0 -0.1 -14.3 -0.1 -28.5 0 -42.8 7.1 0 14.2 0 21.4 0 0 -7.1 0 -14.3 0 -21.4 7.1 0 14.2 0 21.4 0 0 -7.1 0 -14.3 0 -21.4 7.1 0 14.2 0 21.4 0 0 -7.1 0 -14.3 0 -21.4 7.1 0 14.2 0 21.4 0 -0.1 -7.1 0 -14.3 0 -21.4 m -21.4 64.2 c 0 7.1 0 14.3 0 21.4 -7.2 0 -14.3 0 -21.4 0 0 7.1 0 14.3 0 21.4 14.2 0 28.5 0 42.8 0 -0.1 -14.3 -0.1 -28.5 0 -42.8 -7.2 0 -14.3 0 -21.4 0 z" style="fill:white"/><path d="m 2718.6 1205.5 c 28.5 0 57.1 0 85.7 0 -0.1 7.1 -0.1 14.3 0 21.4 7.1 0 14.2 0 21.4 0 -0.1 7.1 -0.1 14.3 0 21.4 -14.3 0 -28.6 0 -42.8 0 -0.1 -7.1 -0.1 -14.3 0 -21.4 -14.3 0 -28.6 0 -42.8 0 -0.1 28.5 -0.1 57.1 0 85.7 14.2 0 28.5 0 42.8 0 -0.1 -7.1 -0.1 -14.3 0 -21.4 14.2 0 28.5 0 42.8 0 -0.1 7.1 -0.1 14.3 0 21.4 -7.2 0 -14.3 0 -21.4 0 -0.1 7.1 -0.1 14.3 0 21.4 -28.6 0 -57.1 0 -85.7 0 -0.1 -7.1 -0.1 -14.3 0 -21.4 -7.2 0 -14.3 0 -21.4 0 -0.1 -28.5 -0.1 -57.1 0 -85.7 7.1 0 14.2 0 21.4 0 -0.1 -7.1 -0.1 -14.3 0 -21.4 z" style="fill:white"/></g></g></svg>